<svg width="56" height="35" viewBox="0 0 56 35" fill="none" xmlns="http://www.w3.org/2000/svg">
<path d="M20.8611 34.5907C19.714 34.5907 18.2599 34.0737 16.5947 33.0565C14.0859 31.523 11.3304 29.0173 8.83513 26.0005C6.33989 22.9836 4.39576 19.8074 3.35968 17.0558C2.26425 14.1466 2.31851 12.0003 3.51144 11.0137C4.70437 10.027 6.82232 10.3771 9.47526 11.9986C11.9841 13.5321 14.7396 16.0386 17.2348 19.0546C19.7301 22.0715 21.6742 25.2477 22.7103 27.9993C23.8057 30.9085 23.7515 33.0548 22.5585 34.0414C22.1143 34.4085 21.5411 34.5907 20.8603 34.5907M5.22411 11.4146C4.76881 11.4146 4.3966 11.5265 4.12275 11.7528C3.28167 12.4479 3.33085 14.2577 4.25755 16.7185C5.25718 19.3734 7.14535 22.453 9.57446 25.3901C12.0036 28.3273 14.6752 30.7593 17.0949 32.2393C19.3384 33.6108 21.107 33.9982 21.9481 33.3031C22.7892 32.608 22.74 30.7983 21.8133 28.3375C20.8136 25.6826 18.9255 22.603 16.4964 19.6658C14.0673 16.7286 11.3965 14.2967 8.97588 12.8166C7.4633 11.8918 6.16693 11.4146 5.22411 11.4146Z" fill="#6EC4E9"/>
<path d="M10.9322 20.261C10.17 20.261 9.42559 20.1941 8.70915 20.0584C6.04519 19.5549 4.08834 18.1664 3.19894 16.1507C2.30954 14.1341 2.60374 11.7538 4.02814 9.44731C5.41778 7.19759 7.72734 5.27762 10.5329 4.04087C13.3384 2.80412 16.3144 2.393 18.9123 2.88465C21.5762 3.38817 23.5331 4.77665 24.4225 6.79241C25.3119 8.80901 25.0177 11.1893 23.5924 13.4958C22.2028 15.7455 19.8932 17.6655 17.0877 18.9022C15.0554 19.7982 12.934 20.261 10.9305 20.261M16.7104 3.63992C14.8824 3.63992 12.8823 4.05359 10.9204 4.91821C8.29031 6.07782 6.13337 7.86471 4.84463 9.95083C3.59065 11.9801 3.31848 14.0451 4.07647 15.7641C4.83445 17.4832 6.54288 18.6742 8.88805 19.1175C11.2977 19.5736 14.0727 19.1853 16.7027 18.0266C19.3328 16.867 21.4906 15.0801 22.7785 12.9931C24.0325 10.9638 24.3046 8.89887 23.5466 7.18064C22.5351 4.8877 19.8847 3.64077 16.7104 3.64077" fill="#83B755"/>
<path d="M2.78002 27.6989C2.44512 27.6989 2.12972 27.6344 1.83721 27.5047C0.422133 26.8766 -0.208673 24.8253 0.0609454 21.7279C0.31615 18.7992 1.33104 15.2161 2.91992 11.6381C4.5088 8.06005 6.486 4.90418 8.48779 2.7511C10.6049 0.474256 12.5499 -0.4336 13.9649 0.193676C15.38 0.821799 16.0108 2.87316 15.7412 5.97054C15.486 8.89924 14.4711 12.4823 12.8822 16.0604C11.2933 19.6384 9.31614 22.7942 7.31435 24.9473C5.6356 26.7537 4.06368 27.6989 2.78002 27.6989ZM13.0052 0.954884C12.0191 0.954884 10.6702 1.81188 9.19151 3.40296C7.26009 5.48059 5.34394 8.54322 3.79745 12.0263C2.25096 15.5094 1.26321 18.984 1.01733 21.8101C0.789256 24.4294 1.23014 26.1849 2.22722 26.6274C3.2243 27.0699 4.82336 26.2197 6.61318 24.2938C8.5446 22.2161 10.4608 19.1535 12.0072 15.6696C13.5537 12.1865 14.5415 8.71191 14.7874 5.88578C15.0154 3.26648 14.5746 1.51096 13.5775 1.06847C13.4045 0.991334 13.2129 0.954036 13.006 0.954036" fill="#313B8E"/>
<path d="M36.0608 27.098C36.1719 27.3193 36.0888 27.6515 35.77 27.6515H35.0637C34.6618 27.6515 34.5372 27.499 34.4126 27.2642L32.571 23.7065C32.3497 23.6785 32.1276 23.6514 31.9199 23.5954V27.2226C31.9199 27.4574 31.7257 27.6515 31.4764 27.6515H30.7982C30.5625 27.6515 30.3691 27.4574 30.3691 27.2226V18.8053C30.3691 18.5696 30.5633 18.3763 30.7982 18.3763H33.318C34.9933 18.3763 36.0184 19.4834 36.0184 21.0482C36.0184 22.2943 35.3673 23.2767 34.2735 23.6234L36.06 27.098H36.0608ZM31.9199 19.8996V22.2807H33.3044C33.9691 22.2807 34.4541 21.8238 34.4541 21.0626C34.4541 20.3429 33.9971 19.8996 33.3188 19.8996H31.9207H31.9199Z" fill="black"/>
<path d="M42.9486 26.377C43.0597 26.377 43.1428 26.4737 43.1428 26.6118V27.2764C43.1428 27.401 43.0877 27.4841 43.0046 27.5392C42.8249 27.6774 42.5476 27.7189 42.2983 27.7189C41.8413 27.7189 41.3148 27.4833 41.1631 26.9577C40.8027 27.4977 40.2075 27.7884 39.4317 27.7884C37.9361 27.7884 37.1196 26.7644 37.1196 24.8673V23.1508C37.1196 21.2402 37.937 20.2297 39.4317 20.2297C40.0964 20.2297 40.6365 20.4374 40.996 20.8528V20.7417C40.9825 20.562 41.1207 20.423 41.3564 20.423H42.1042C42.3399 20.423 42.5332 20.6307 42.5332 20.8663V25.9888C42.5332 26.2796 42.6298 26.3762 42.824 26.3762H42.9486V26.377ZM40.968 22.6117C40.968 22.1133 40.5662 21.6843 39.8184 21.6843C39.0705 21.6843 38.6551 22.1277 38.6551 22.972V25.0487C38.6551 25.893 39.057 26.3364 39.8184 26.3364C40.5797 26.3364 40.968 25.893 40.968 25.3946V22.6117Z" fill="black"/>
<path d="M44.1206 23.1525C44.1206 21.2283 45.0346 20.2314 46.793 20.2314C48.5515 20.2314 49.4655 21.2283 49.4655 23.1525V24.1494C49.4655 24.385 49.2713 24.5783 49.0365 24.5783H45.6578V24.9937C45.6578 25.9625 46.1283 26.4059 46.9457 26.4059C47.306 26.4059 47.6655 26.2948 48.0123 26.0041C48.3446 25.8244 48.4557 25.7693 48.7321 25.9761L49.0924 26.2389C49.2722 26.377 49.3002 26.6822 49.1755 26.8339C48.677 27.4434 47.9427 27.7893 46.9465 27.7893C45.0634 27.7893 44.1215 26.7373 44.1215 24.8267V23.1517L44.1206 23.1525ZM45.6578 23.3458L47.9283 23.3178V22.972C47.9283 22.0302 47.568 21.6157 46.793 21.6157C46.0181 21.6157 45.6578 22.0446 45.6578 22.972V23.3458Z" fill="black"/>
<path d="M55.5708 17.4065C55.8065 17.4065 55.9998 17.6006 55.9998 17.8354V27.2217C55.9998 27.4565 55.8057 27.6506 55.5708 27.6506H54.8925C54.6568 27.6506 54.4635 27.4565 54.4635 27.2217V27.2081C54.1032 27.5955 53.5775 27.7896 52.9264 27.7896C51.4307 27.7896 50.6143 26.7656 50.6143 24.8685V23.152C50.6143 21.2414 51.4316 20.2309 52.9264 20.2309C53.5775 20.2309 54.1032 20.4251 54.4635 20.8124V17.8363C54.4635 17.6006 54.6577 17.4073 54.8925 17.4073H55.5708V17.4065ZM54.4635 25.3949V22.612C54.4635 22.1136 54.0616 21.6847 53.3138 21.6847C52.566 21.6847 52.1506 22.128 52.1506 22.9723V25.0491C52.1506 25.8934 52.5525 26.3367 53.3138 26.3367C54.0752 26.3367 54.4635 25.8934 54.4635 25.3949Z" fill="black"/>
<path d="M47.1853 10.9749H46.1746C45.9254 10.9749 45.7872 10.7672 45.7872 10.518V10.2408C45.7872 10.0467 45.9398 9.86702 46.1746 9.86702H46.3128C46.451 9.86702 46.5485 9.92212 46.6172 9.99163C46.7834 10.1442 46.9776 10.0747 47.0878 9.96366L47.365 9.67291C47.4897 9.5483 47.4761 9.35418 47.3515 9.24398C47.1302 9.03631 46.7283 8.81506 46.3128 8.81506H46.1746C45.3573 8.81506 44.7341 9.4381 44.7341 10.2408V10.5867C44.7341 10.7113 44.7621 10.8495 44.8036 10.9741H44.5408C44.3611 10.9741 44.25 11.1538 44.25 11.2784V11.7353C44.25 11.8879 44.3611 12.026 44.5408 12.026H47.1853C47.365 12.026 47.4897 11.8879 47.4897 11.7353V11.2784C47.4897 11.1538 47.365 10.9741 47.1853 10.9741V10.9749Z" fill="black"/>
<path d="M47.0597 12.3038H46.3822C46.1457 12.3038 45.9524 12.4979 45.9524 12.7319V13.9237C45.9524 14.6714 45.5793 15.0036 44.8315 15.0036H37.311C36.5776 15.0036 36.2181 14.6714 36.0647 13.9644L36.0206 13.6643C36.0172 13.4007 35.9765 13.132 35.9036 12.8582C35.9036 12.8565 35.9019 12.8548 35.9019 12.8514C35.6246 11.8283 34.8836 10.7619 33.7992 9.84049H33.7975C33.7729 9.8193 33.7483 9.79981 33.7246 9.77861C33.5474 9.63027 33.3024 9.64807 33.1447 9.78539C33.0777 9.8388 33.026 9.91763 33.0014 10.0134C32.9692 10.1406 32.9327 10.2677 32.892 10.3915C32.7894 10.711 32.8445 11.0577 33.0387 11.3214C33.0684 11.3638 33.1023 11.4044 33.1413 11.4417C34.1935 12.4844 34.5784 13.5685 34.3079 14.1289C34.0603 14.6383 33.1854 14.9511 32.0798 14.924C31.9789 14.9223 31.8746 14.9155 31.7703 14.9062C31.5227 14.8884 31.2684 14.8528 31.0115 14.8036C30.7317 14.7502 30.451 14.9045 30.3611 15.1749C30.3595 15.1817 30.3578 15.1867 30.3561 15.191C30.2094 15.6241 30.3823 16.0836 30.7325 16.3209C30.8461 16.3972 30.9818 16.4532 31.1302 16.4744C31.1675 16.4794 31.2048 16.4845 31.2429 16.4888H31.2446C31.4634 16.5345 31.6847 16.554 31.8847 16.554H33.4906C34.2935 16.554 34.9726 16.3048 35.444 15.9039C35.8451 16.415 36.4411 16.554 37.3127 16.554H44.8061C46.7723 16.554 47.4921 15.5852 47.4921 13.9237V12.7319C47.4921 12.4971 47.2979 12.3038 47.0622 12.3038H47.0597Z" fill="black"/>
<path d="M50.3571 7.12741C50.3571 6.89176 50.163 6.69849 49.9281 6.69849H49.2473C49.0116 6.69849 48.8183 6.89261 48.8183 7.12741L48.8047 16.1263C48.8047 16.3611 48.9988 16.5552 49.2481 16.5552H49.9289C50.1782 16.5552 50.3724 16.3611 50.3724 16.1263L50.3588 7.12741H50.3571Z" fill="black"/>
<path d="M55.366 8.72106H54.7013C54.4656 8.72106 54.2723 8.91518 54.2723 9.14998V13.98C54.2723 14.8938 53.9815 15.2396 53.2617 15.2396H53.0955C52.708 15.2396 52.4028 15.143 52.223 14.9904C52.0017 14.8243 51.8076 14.8378 51.6414 15.0455L51.2955 15.4744C51.1429 15.6821 51.1988 15.9585 51.3786 16.111C51.8771 16.5544 52.4308 16.7756 53.109 16.7756H53.2472C54.937 16.7756 55.8086 15.8067 55.8086 13.9656V9.14914C55.8086 8.91348 55.6145 8.72021 55.3652 8.72021L55.366 8.72106Z" fill="black"/>
</svg>
